<?xml version="1.0" encoding="UTF-8" standalone="no"?>
<svg
   xmlns:dc="http://purl.org/dc/elements/1.1/"
   xmlns:cc="http://creativecommons.org/ns#"
   xmlns:rdf="http://www.w3.org/1999/02/22-rdf-syntax-ns#"
   xmlns:svg="http://www.w3.org/2000/svg"
   xmlns="http://www.w3.org/2000/svg"
   xmlns:sodipodi="http://sodipodi.sourceforge.net/DTD/sodipodi-0.dtd"
   xmlns:inkscape="http://www.inkscape.org/namespaces/inkscape"
   version="1.1"
   width="189.60239"
   height="179.9613"
   overflow="visible"
   viewBox="0 0 189.60239 179.9613"
   enable-background="new 0.0 0.0 1003.0 557.0"
   id="svg9269"
   inkscape:version="0.48.0 r9654"
   sodipodi:docname="Squirtle_-_Dream_World.svg"
   style="overflow:visible">
  <metadata
     id="metadata9403">
    <rdf:RDF>
      <cc:Work
         rdf:about="">
        <dc:format>image/svg+xml</dc:format>
        <dc:type
           rdf:resource="http://purl.org/dc/dcmitype/StillImage" />
        <dc:title />
      </cc:Work>
    </rdf:RDF>
  </metadata>
  <sodipodi:namedview
     pagecolor="#ffffff"
     bordercolor="#666666"
     borderopacity="1"
     objecttolerance="10"
     gridtolerance="10"
     guidetolerance="10"
     inkscape:pageopacity="0"
     inkscape:pageshadow="2"
     inkscape:window-width="640"
     inkscape:window-height="480"
     id="namedview9401"
     showgrid="false"
     fit-margin-top="0"
     fit-margin-left="0"
     fit-margin-right="0"
     fit-margin-bottom="0"
     inkscape:zoom="0.47856431"
     inkscape:cx="501.5"
     inkscape:cy="-98.573179"
     inkscape:window-x="65"
     inkscape:window-y="98"
     inkscape:window-maximized="0"
     inkscape:current-layer="svg9269" />
  <defs
     id="defs9271" />
  <g
     id="g9275"
     transform="translate(0,0.03448972)">
    <g
       id="g9277">
      <g
         id="g9279">
        <path
           d="m 86.45,91.9 c -1.8,-1 -4.95,-5.11667 -9.45,-12.35 -3.86667,-6.233334 -6.433334,-10.8 -7.7,-13.7 -1.16666,-2.6 -2.43333,-6.166666 -3.8,-10.7 -1.633335,-5.2 -2.166668,-8.016665 -1.6,-8.45 0.86666,-0.633334 3.46666,-1.01667 7.8,-1.15 l 1.5,-5.05 c 1.16666,-3.399998 2.15,-5.1 2.95,-5.1 0.8,0 5.08333,3.15 12.85,9.45 l 11.4,9.45 2.4,4.85 c 2.36666,3.933336 5.41666,7.550005 9.15,10.85 l -0.6,6.9 c -1.03333,5.1 -3.2,8.933336 -6.5,11.5 -3.8,2.96667 -7.21666,4.683336 -10.25,5.15 -2.666666,0.400005 -5.38333,-0.15 -8.15,-1.65 z"
           id="path9281"
           inkscape:connector-curvature="0"
           style="fill:#84cabf;stroke-linecap:round;stroke-linejoin:round" />
        <path
           d="m 138.15,0.7 c 9.86666,0 18.76667,2.8333335 26.7,8.5 7.9,5.633333 11.85,11.983332 11.85,19.05 0,1.333334 -0.36667,2.433334 -1.1,3.3 l -1.65,-2.25 c -2.43334,4.866664 -3.65,9.149997 -3.65,12.85 0,5.433332 0.85001,8.15 2.55,8.15 0.76667,0 1.46667,-0.366666 2.1,-1.1 l 0.75,-1.15 1.4,1.75 c 0.9,1.533332 1.35,3.166667 1.35,4.9 0,1.766667 -0.58333,3.3 -1.75,4.6 l -1.75,1.45 c -1.06667,4.933334 -4.63333,9.5 -10.7,13.7 -6.66667,4.599995 -14.08334,6.9 -22.25,6.9 C 129.6,81.35 118.8,76.9 109.6,68 100.66666,59.399998 96.2,49.699997 96.2,38.9 96.2,27.466667 100.66666,18.083332 109.6,10.75 117.8,4.0499997 127.31667,0.6999996 138.15,0.7 z"
           id="path9283"
           inkscape:connector-curvature="0"
           style="fill:#84cabf;stroke-linecap:round;stroke-linejoin:round" />
        <path
           d="m 161.7,75.65 1.9,0.8 c 1.6,0.7 3.18333,1.46667 4.75,2.3 2.53333,1.36667 6.01667,3.55 10.45,6.55 l 3.2,0 c 2.16667,0.1 3.28334,0.383334 3.35,0.85 0.16668,0.7 -0.1,2.399995 -0.8,5.1 l 1.85,0.8 c 1.26667,0.6 1.95,1.133334 2.05,1.6 0.16667,0.7 -1.1,2.399995 -3.8,5.1 0.86666,1.26667 1.06666,2.41667 0.6,3.45 -0.43333,0.93333 -2.55,2.06666 -6.35,3.4 -4.30001,1.46667 -8.41668,2.2 -12.35,2.2 -3.6,0 -7.03334,-0.5 -10.3,-1.5 l -3.85,-1.5 c 0.5,-4.2 0.66667,-8.366666 0.5,-12.5 -0.1,-2.56667 -0.6,-5.33334 -1.5,-8.3 l -1.35,-3.7 6.4,-2 c 1.13333,-0.4 2.88333,-1.28333 5.25,-2.65 z"
           id="path9285"
           inkscape:connector-curvature="0"
           style="fill:#84cabf;stroke-linecap:round;stroke-linejoin:round" />
        <path
           d="m 74.5,118.5 c 1.799995,0 3.88333,1.05 6.25,3.15 2.76667,2.43334 4.96667,5.61667 6.6,9.55 3.9,9.46666 5.16667,15.7 3.8,18.7 -0.5,1.16667 -1.816664,3.18333 -3.95,6.05 -2.8,3.76667 -4.7,6.43335 -5.7,8 l -6.4,9.25 c -2.433336,3.33333 -3.86667,5.08333 -4.3,5.25 -0.53333,0.23333 -2.866666,-1.75 -7,-5.95 -6.9,2.76666 -10.516663,4.06667 -10.85,3.9 -0.3,-0.13334 -0.649997,-2.5 -1.05,-7.1 -5.4,-2.86667 -8.133334,-4.73333 -8.2,-5.6 -0.03333,-0.53334 1.150002,-1.88335 3.55,-4.05 l 3.6,-3.1 c 0.233332,-2.73333 0.683333,-5.8 1.35,-9.2 1.366666,-6.83332 3.216664,-11.96665 5.55,-15.4 6.033337,-8.96667 11.61667,-13.45 16.75,-13.45 z"
           id="path9287"
           inkscape:connector-curvature="0"
           style="fill:#84cabf;stroke-linecap:round;stroke-linejoin:round" />
        <path
           d="m 111.75,150.7 c 8.70001,-3.16667 15.28334,-6.16667 19.75,-9 2.76666,-1.8 5.75,-4.71668 8.95,-8.75 l 4,-5.55 5.2,4.85 c 3.43333,4.06667 5.15,8.2 5.15,12.4 0,2.96667 -0.23333,5.38334 -0.7,7.25 l -0.75,1.9 4.1,2.05 c 2.66667,1.46667 3.91667,2.49999 3.75,3.1 -0.13333,0.66667 -1.43334,1.83334 -3.9,3.5 -0.2,0.13333 -0.05,0.39999 0.45,0.8 0.5,0.43333 0.61667,0.73334 0.35,0.9 -3.43333,2.06666 -8.06666,4.13333 -13.9,6.2 -5.53334,2 -8.98334,2.91668 -10.35,2.75 -0.86666,-0.1 -2.63333,-1.83334 -5.3,-5.2 -2.36667,-3 -3.8,-5.05001 -4.3,-6.15 -0.29999,-0.63333 -2.46666,-2.66667 -6.5,-6.1 l -6,-4.95 z"
           id="path9289"
           inkscape:connector-curvature="0"
           style="fill:#84cabf;stroke-linecap:round;stroke-linejoin:round" />
        <path
           d="m 9.7,113.35 c -5.4,-7.66667 -8.0999996,-14.666666 -8.1,-21 0,-9.06667 2.9833335,-16.55 8.95,-22.45 5.666667,-5.63333 12.466668,-8.449995 20.4,-8.45 7.133336,0 12.833337,2.516667 17.1,7.55 4.433334,5.200005 6.65,12.4 6.65,21.6 l -0.95,9.65 c -0.633335,5.43333 -0.95,10.05 -0.95,13.85 0,4.16666 0.933334,8.25 2.8,12.25 0.9,1.96667 1.816668,3.53333 2.75,4.7 l -2.2,4.6 -2.4,6.2 c -2.333332,-0.0333 -5.166664,-0.45 -8.5,-1.25 -6.666668,-1.66667 -12.5,-4.48333 -17.5,-8.45 -7.300001,-5.83333 -13.316668,-12.1 -18.05,-18.8 z"
           id="path9291"
           inkscape:connector-curvature="0"
           style="fill:#84cabf;stroke-linecap:round;stroke-linejoin:round" />
        <path
           d="m 111.3,76.9 0.65,-6.9 5.1,3.3 c 4.2,2.5 8.31666,4.516666 12.35,6.05 4.03333,1.53333 8.68334,2.15 13.95,1.85 l 6.7,-0.9 1.6,5.1 c 1.03333,4.1 1.55,8 1.55,11.7 0,14.93333 -5.18334,27.85001 -15.55,38.75 -10.53334,11.06667 -23.21667,16.6 -38.05,16.6 -2.5,0 -4.7,-0.28333 -6.6,-0.85 l -2.1,-0.9 c 0.36666,-1.5 0.45,-3.53333 0.25,-6.1 -0.43333,-5.13334 -2.11667,-10.38334 -5.05,-15.75 -2.9,-5.36666 -5.916666,-8.71666 -9.05,-10.05 -0.966664,-0.43333 -1.88333,-0.63334 -2.75,-0.6 l -1.05,0.15 2.95,-2.65 c 2.3,-2.46667 4.33333,-5.38333 6.1,-8.75 1.8,-3.36666 3.03333,-6.81666 3.7,-10.35 l 0.45,-4.25 1.4,0.65 c 1.2,0.433334 2.46667,0.700005 3.8,0.8 4.3,0.266666 8.53333,-1.31667 12.7,-4.75 3.53333,-2.9 5.85,-6.95 6.95,-12.15 z"
           id="path9293"
           inkscape:connector-curvature="0"
           style="fill:#f2e100;stroke-linecap:round;stroke-linejoin:round" />
        <path
           d="m 78.85,83.55 3.4,4.45 c 0.833336,1.166664 2.316666,2.6 4.45,4.3 l -0.75,4.65 c -0.8,3.66666 -1.96666,6.91666 -3.5,9.75 -1.5,2.86667 -3.533336,5.68333 -6.1,8.45 l -3.4,3.3 -1.55,0.55 -3.2,1.35 c -0.900005,0.46667 -2.01667,1.38333 -3.35,2.75 l -1.75,1.95 c 0.299998,-1.9 0.7,-3.95 1.2,-6.15 0.96667,-4.36667 1.900005,-7.26667 2.8,-8.7 0.6,-0.93333 2.01666,-2.61666 4.25,-5.05 2.13334,-2.36667 3.733336,-4.46667 4.8,-6.3 1.2,-2.06667 2,-5.23333 2.4,-9.5 l 0.3,-5.8 z"
           id="path9295"
           inkscape:connector-curvature="0"
           style="fill:#eeeeef;stroke-linecap:round;stroke-linejoin:round" />
        <path
           d="m 78.5,89.2 c -0.299995,4.599995 -1.08333,7.93333 -2.35,10 -1.066664,1.8 -2.816664,4.00001 -5.25,6.6 -2.36667,2.5 -3.816664,4.23333 -4.35,5.2 -1.2,2.13333 -2.400006,6.61666 -3.6,13.45 l -4.6,6.6 c -0.933332,-0.9 -1.85,-2.33334 -2.75,-4.3 -1.866666,-3.96667 -2.8,-8.66666 -2.8,-14.1 0,-12.73333 2.7,-24.566664 8.1,-35.5 2.7,-5.466666 5.399995,-9.65 8.1,-12.55 l 4.55,8.8 5,9.5 -0.05,6.3 z"
           id="path9297"
           inkscape:connector-curvature="0"
           style="fill:#cf7100;stroke-linecap:round;stroke-linejoin:round" />
        <path
           d="m 98.7,53.65 -8.5,-7.7 5.5,-3.8 3,11.5 z"
           id="path9299"
           inkscape:connector-curvature="0"
           style="fill:#eeeeef;stroke-linecap:round;stroke-linejoin:round" />
        <path
           d="m 121.6,40.55 c -0.33334,-0.6 -0.4,-2.166665 -0.2,-4.7 0.26667,-2.8 0.80001,-5.55 1.6,-8.25 2.33334,-7.566667 5.93333,-11.35 10.8,-11.35 1.96666,0 3.41666,1.366667 4.35,4.1 1.13334,3.233334 0.88334,7.333334 -0.75,12.3 -0.86666,2.6 -1.96665,4.98333 -3.3,7.15 -1.3,2.1 -2.4,3.333335 -3.3,3.7 -0.8,0.3 -2.5,-0.01667 -5.1,-0.95 -2.5,-0.9 -3.86667,-1.566666 -4.1,-2 z"
           id="path9301"
           inkscape:connector-curvature="0"
           style="fill:#c6000b;stroke-linecap:round;stroke-linejoin:round" />
        <path
           d="m 173.95,29.3 c 0.5,0 1.11667,0.716666 1.85,2.15 1,1.93333 1.5,4.299996 1.5,7.1 0,3.166667 -0.55,6 -1.65,8.5 -1.03333,2.33333 -2.1,3.5 -3.2,3.5 -1.6,0 -2.4,-2.25 -2.4,-6.75 0,-3.6 0.65,-7.1 1.95,-10.5 l 1.95,-4 z"
           id="path9303"
           inkscape:connector-curvature="0"
           style="fill:#c6000b;stroke-linecap:round;stroke-linejoin:round" />
        <path
           d="m 131.15,43.65 c 1.76667,-1.666666 3.18334,-3.466666 4.25,-5.4 1.06666,-1.966667 2.01666,-4 2.85,-6.1 l -0.6,5.45 c -0.56667,3.7 -1.23334,5.75 -2,6.15 l -2.95,0.3 -1.55,-0.4 z"
           id="path9305"
           inkscape:connector-curvature="0"
           style="fill:#ffffff;stroke-linecap:round;stroke-linejoin:round" />
        <path
           d="m 131.75,21.35 c 0.83333,0.166666 1.46666,1.033333 1.9,2.6 0.43333,1.666667 0.44999,3.6 0.05,5.8 -0.36667,1.966667 -1.05,3.600002 -2.05,4.9 -1.03333,1.366666 -2.1,1.933332 -3.2,1.7 -1.06667,-0.233335 -1.78334,-1.183336 -2.15,-2.85 -0.36667,-1.533333 -0.33333,-3.283333 0.1,-5.25 0.5,-2.266666 1.31667,-4.066666 2.45,-5.4 1.03333,-1.166666 1.99999,-1.666666 2.9,-1.5 z"
           id="path9307"
           inkscape:connector-curvature="0"
           style="fill:#0d131a;stroke-linecap:round;stroke-linejoin:round" />
        <path
           d="m 173,43.75 c -0.66667,0.8 -1.20001,1.149998 -1.6,1.05 -0.5,-0.16667 -0.78333,-0.850003 -0.85,-2.05 -0.0667,-1.033333 0.0333,-2.183334 0.3,-3.45 0.26667,-1.266667 0.68334,-2.41667 1.25,-3.45 0.66668,-1.16667 1.28335,-1.61667 1.85,-1.35 0.6,0.266666 0.91667,1.05 0.95,2.35 0.0667,1.066668 -0.0667,2.333334 -0.4,3.8 -0.26666,1.16667 -0.76666,2.200002 -1.5,3.1 z"
           id="path9309"
           inkscape:connector-curvature="0"
           style="fill:#0d131a;stroke-linecap:round;stroke-linejoin:round" />
        <path
           d="m 130.1,17.1 c 1.33333,-0.666666 2.35,-0.783332 3.05,-0.35 0.63334,0.366667 1.16668,1.15 1.6,2.35 0.46666,1.466666 0.48332,2.899998 0.05,4.3 -0.46666,1.533334 -1.31666,2.666668 -2.55,3.4 -1.09999,0.7 -2.13333,0.883334 -3.1,0.55 -1.2,-0.366666 -2,-1.2 -2.4,-2.5 -0.4,-1.333334 -0.28333,-2.85 0.35,-4.55 0.53333,-1.4 1.53333,-2.466666 3,-3.2 z"
           id="path9311"
           inkscape:connector-curvature="0"
           style="fill:#ffffff;stroke-linecap:round;stroke-linejoin:round" />
        <path
           d="m 171.9,34.05 c 0.6,-2.2 1.25001,-3.2 1.95,-3 0.30001,0.1 0.53335,0.5 0.7,1.2 0.16667,0.733334 0.16667,1.483334 0,2.25 -0.5,2.3 -1.13333,3.38333 -1.9,3.25 -0.46667,-0.100002 -0.76667,-0.500004 -0.9,-1.2 -0.13333,-0.7 -0.0833,-1.533334 0.15,-2.5 z"
           id="path9313"
           inkscape:connector-curvature="0"
           style="fill:#ffffff;stroke-linecap:round;stroke-linejoin:round" />
        <path
           d="m 122.2,79.8 c -5.33334,-3.733334 -8.75,-7.000005 -10.25,-9.8 l 6.2,3.6 c 5.2,2.63334 10.36666,4.616675 15.5,5.95 3.23333,0.8 6.95,1.099994 11.15,0.9 l 5.3,-0.55 0.75,1.85 c -0.8,0.700005 -1.96667,1.41667 -3.5,2.15 -3.06666,1.4 -6.44999,2.1 -10.15,2.1 -4.06667,0 -9.06667,-2.066666 -15,-6.2 z"
           id="path9315"
           inkscape:connector-curvature="0"
           style="fill:#cbbd00;stroke-linecap:round;stroke-linejoin:round" />
        <path
           d="m 129.25,143.1 c -9.06667,6.23333 -18.78333,9.35 -29.15,9.35 l -6.5,-0.85 -2.7,-0.9 0.55,-2.4 c 0.26667,-1.9 0.233334,-3.58334 -0.1,-5.05 l -0.9,-4.85 -0.35,-2.25 c 6.73333,2.43333 15.16666,3.55 25.3,3.35 11.13334,-0.2 19.25001,-2.11667 24.35,-5.75 -2.46666,3.13333 -5.96666,6.25 -10.5,9.35 z"
           id="path9317"
           inkscape:connector-curvature="0"
           style="fill:#cbbd00;stroke-linecap:round;stroke-linejoin:round" />
        <path
           d="m 81.75,56.55 c -0.333336,1.06667 -0.73334,1.733337 -1.2,2 -0.43333,0.266666 -0.75,-0.03333 -0.95,-0.9 -0.3,-1.533335 -0.416666,-3.500002 -0.35,-5.9 l 0.2,-3.15 c 0,-1.133333 0.16666,-1.95 0.5,-2.45 0.366666,-0.633334 0.83333,-0.183333 1.4,1.35 1.16666,3.133335 1.299994,6.15 0.4,9.05 z"
           id="path9319"
           inkscape:connector-curvature="0"
           style="fill:#72b0a6;stroke-linecap:round;stroke-linejoin:round" />
        <path
           d="M 86.1,92.05 C 84,90.450005 81.01667,86.600006 77.15,80.5 73.71667,75.03333 71.26667,70.583336 69.8,67.15 68.63334,64.48334 67.466675,61.333336 66.3,57.7 c -1,-3.06667 -1.68333,-5.416667 -2.05,-7.05 -0.433334,-1.799998 -0.350002,-2.9 0.25,-3.3 0.700005,-0.5 1.933334,0.6 3.7,3.3 l 18.6,22.5 c 10.1,12.166666 14.58333,18.56667 13.45,19.2 -1.833336,1.03333 -3.96667,1.61667 -6.4,1.75 -3.1,0.2 -5.683336,-0.48333 -7.75,-2.05 z"
           id="path9321"
           inkscape:connector-curvature="0"
           style="fill:#72b0a6;stroke-linecap:round;stroke-linejoin:round" />
        <path
           d="m 165.75,107.75 c -3.7,0 -7.03333,-0.48333 -10,-1.45 l -3.35,-1.5 0.8,-7.7 c 2.23333,1.333334 6.36667,2.61667 12.4,3.85 7.43334,1.53333 13.98334,1.94999 19.65,1.25 -0.63333,0.93333 -1.91667,1.86667 -3.85,2.8 -3.9,1.83334 -9.11666,2.75 -15.65,2.75 z"
           id="path9323"
           inkscape:connector-curvature="0"
           style="fill:#72b0a6;stroke-linecap:round;stroke-linejoin:round" />
        <path
           d="m 129.9,142.95 c -1.66666,1.2 -2.18333,2.93333 -1.55,5.2 0.56667,2.16667 2.05001,4.33334 4.45,6.5 5.86667,5.3 12.81667,7.45 20.85,6.45 l -1.5,-0.65 c -1.13334,-0.43334 -1.63334,-0.66667 -1.5,-0.7 l 5.4,-0.5 5.45,-1.15 c -0.7,1.4 -2.06667,2.81667 -4.1,4.25 -0.13334,0.0667 -0.05,0.35 0.25,0.85 0.3,0.46666 0.36666,0.75 0.2,0.85 -1.4,0.9 -4.30001,2.43332 -8.7,4.6 -4.36666,2.1 -8.14998,3.46667 -11.35,4.1 l -4.55,0.2 c -0.76666,-0.23333 -3.59999,-4.01665 -8.5,-11.35 l -13.25,-10.4 3.9,-1.4 6.7,-2.7 c 2.56666,-1.16667 5.16666,-2.55 7.8,-4.15 z"
           id="path9325"
           inkscape:connector-curvature="0"
           style="fill:#72b0a6;stroke-linecap:round;stroke-linejoin:round" />
        <path
           d="m 44.1,164.05 c -0.133333,-0.63333 1.366667,-0.26666 4.5,1.1 3,1.3 4.299998,2.56666 3.9,3.8 l -4.6,-1.55 -3.8,-3.35 z"
           id="path9327"
           inkscape:connector-curvature="0"
           style="fill:#72b0a6;stroke-linecap:round;stroke-linejoin:round" />
        <path
           d="m 64.05,171 c 0.16667,0.56667 -0.03334,1 -0.6,1.3 l -6.5,3 -2.75,0.6 -1.7,0.2 0.45,-1.6 c 0.2,0.3 1.566666,-0.23334 4.1,-1.6 2.933334,-1.53333 4.7,-2.36666 5.3,-2.5 0.933333,-0.23333 1.500002,-0.0333 1.7,0.6 z"
           id="path9329"
           inkscape:connector-curvature="0"
           style="fill:#72b0a6;stroke-linecap:round;stroke-linejoin:round" />
        <path
           d="m 68.35,176.9 c 0.333334,0.16667 1.36667,-0.78333 3.1,-2.85 1.733334,-2.06666 3.03334,-3.91667 3.9,-5.55 l 8.1,-15.65 c 4.43333,-9.06666 6.483334,-14.43333 6.15,-16.1 l 1.4,5.05 c 0.799995,3.76667 0.76666,6.73333 -0.1,8.9 -0.76667,1.93333 -1.9,3.76666 -3.4,5.5 -2.23333,2.53334 -3.916664,4.66667 -5.05,6.4 -7.06667,10.80001 -10.866664,16.2 -11.4,16.2 l -1.65,-0.95 -1.05,-0.95 z"
           id="path9331"
           inkscape:connector-curvature="0"
           style="fill:#72b0a6;stroke-linecap:round;stroke-linejoin:round" />
        <path
           d="m 41.5,127.65 c 6.033333,4.53333 11.05,6.8 15.05,6.8 l -2.8,7.4 c -2.233334,0.1 -5.066666,-0.28333 -8.5,-1.15 -6.866665,-1.73333 -13.283333,-4.99999 -19.25,-9.8 -6.233334,-5 -11.483334,-10.58333 -15.75,-16.75 l -4.5,-7.75 c 6.433333,3.53333 10.116667,5.35 11.05,5.45 0.966666,0.13334 4.166667,-0.56666 9.6,-2.1 3.333334,6.86667 8.366666,12.83334 15.1,17.9 z"
           id="path9333"
           inkscape:connector-curvature="0"
           style="fill:#72b0a6;stroke-linecap:round;stroke-linejoin:round" />
        <path
           d="M 5.25,104.1 C 1.2166662,97.26666 0.3666662,90.066666 2.7,82.5 3.4333334,80.13333 4.45,77.86666 5.75,75.7 l 1.7,-2.55 C 6.383333,79.01666 6.766667,84.299995 8.6,89 c 1.6,4.1 4.1,7.33333 7.5,9.7 3.133334,2.2 6.4,3.25001 9.8,3.15 3.466667,-0.13333 6.15,-1.45 8.05,-3.95 l -0.65,2.45 c -0.566666,1.83333 -1.25,3.35001 -2.05,4.55 -1.066668,1.63333 -2.783335,3.14999 -5.15,4.55 -2.7,1.59999 -5.266668,2.4 -7.7,2.4 -2.566667,0 -5.100001,-0.76666 -7.6,-2.3 -2.433333,-1.46666 -4.2833336,-3.28333 -5.55,-5.45 z"
           id="path9335"
           inkscape:connector-curvature="0"
           style="fill:#72b0a6;stroke-linecap:round;stroke-linejoin:round" />
        <path
           d="M 52.95,111.7 C 53.483334,100.13333 55.6,89.9 59.3,81 c 1.166667,-2.799995 2.416667,-5.283325 3.75,-7.45 L 64.7,71.1 c -2.366668,6.3 -3.233333,14.466666 -2.6,24.5 0.6,9.36667 1.95,15.16667 4.05,17.4 l -3.2,11.45 -4.6,6.6 c -1,-0.66667 -1.983335,-1.96667 -2.95,-3.9 -1.933333,-3.86667 -2.75,-9.01667 -2.45,-15.45 z"
           id="path9337"
           inkscape:connector-curvature="0"
           style="fill:#a95b00;stroke-linecap:round;stroke-linejoin:round" />
        <path
           d="m 78.35,112.8 -4.6,5.55 -2.2,0.65 c -1.633336,0.56667 -2.91667,1.15 -3.85,1.75 l -4.75,3.7 c 0.633336,-3.3 1.116666,-5.58333 1.45,-6.85 l 1.05,-3.05 0.7,-1.55 c 0.3,0.93333 1.53333,1.5 3.7,1.7 2.63334,0.23333 5.46667,-0.4 8.5,-1.9 z"
           id="path9339"
           inkscape:connector-curvature="0"
           style="fill:#c8c9ca;stroke-linecap:round;stroke-linejoin:round" />
        <path
           d="m 147.4,0.75 c 10.43333,1.5666666 18.8,6.5 25.1,14.8 2.53334,3.3 4.16667,6.533334 4.9,9.7 0.73333,3.133333 0.41667,5.466667 -0.95,7 -0.13333,0.166668 -0.31667,-0.116665 -0.55,-0.85 -0.23333,-0.766667 -0.3,-1.25 -0.2,-1.45 0.8,-1.3 0.65,-3.316667 -0.45,-6.05 -1.13333,-2.8 -2.96666,-5.65 -5.5,-8.55 -6.40001,-7.300001 -13.95001,-11.600001 -22.65,-12.9 -12.36666,-1.8666666 -23.23333,0.2 -32.6,6.2 -9.36667,6 -14.91667,14.466667 -16.65,25.4 -1.666666,10.6 1.216666,20.26667 8.65,29 7.4,8.66667 17.25,14.016666 29.55,16.05 8.63333,1.43333 16.8,0.15 24.5,-3.85 7.26667,-3.799995 11.76667,-8.7 13.5,-14.7 l 0.9,0.05 c 0.5,0.233332 0.71667,0.466666 0.65,0.7 -1.8,6.33333 -6.51667,11.5 -14.15,15.5 -8.03334,4.16667 -16.60001,5.5 -25.7,4 C 122.95001,78.666664 112.60001,73.03333 104.7,63.9 96.7,54.666664 93.58333,44.549995 95.35,33.55 97.21667,21.783333 102.93333,12.866666 112.5,6.8 c 9.6,-6.0999997 21.23334,-8.1166666 34.9,-6.05 z"
           id="path9341"
           inkscape:connector-curvature="0"
           style="fill:#0d131a;stroke-linecap:round;stroke-linejoin:round" />
        <path
           d="m 177.25,54.7 c 0.13333,-2.7 -0.56667,-4.883334 -2.1,-6.55 -0.1,-0.1 0.0167,-0.3 0.35,-0.6 0.33333,-0.266667 0.58333,-0.333333 0.75,-0.2 2.03334,1.933333 2.98334,4.45 2.85,7.55 -0.16667,3.066667 -1.3,5.366666 -3.4,6.9 l -1.1,-0.1 c -0.4,-0.4 -0.88334,-0.76667 -1.45,-1.1 -0.80001,-0.466665 -1.51667,-0.7 -2.15,-0.7 l -5.4,2.25 c -3.5,1.466665 -6.23333,2.166666 -8.2,2.1 -0.83333,-0.03333 -2.9,-1.033333 -6.2,-3 -3.7,-2.2 -5.98333,-3.45 -6.85,-3.75 -1.4,-0.466667 -4.15,-1.083332 -8.25,-1.85 l -9.2,-1.4 c -2.33333,-0.233334 -4.58333,-1.183334 -6.75,-2.85 -2.06666,-1.566668 -3.63333,-3.41667 -4.7,-5.55 -0.5,-1.033334 -0.56667,-1.633333 -0.2,-1.8 0.33334,-0.16667 0.75,0.266666 1.25,1.3 0.9,1.83333 2.35,3.433333 4.35,4.8 2.03333,1.366666 4.11667,2.166666 6.25,2.4 l 9.35,1.4 c 4.23333,0.8 7.06666,1.466668 8.5,2 0.86667,0.333333 3.1,1.55 6.7,3.65 3.23333,1.9 5.2,2.883334 5.9,2.95 1.8,0.133334 4.43334,-0.533334 7.9,-2 l 5.45,-2.35 c 1.43333,-0.06667 2.88333,0.53333 4.35,1.8 1.2,-1.066666 1.86667,-2.833332 2,-5.3 z"
           id="path9343"
           inkscape:connector-curvature="0"
           style="fill:#0d131a;stroke-linecap:round;stroke-linejoin:round" />
        <path
           d="m 152.8,54.6 c -0.66667,-1.3 -0.81666,-2.033334 -0.45,-2.2 0.4,-0.2 0.99999,0.316667 1.8,1.55 0.83332,1.233334 0.98333,1.966668 0.45,2.2 -0.53333,0.233335 -1.13334,-0.28333 -1.8,-1.55 z"
           id="path9345"
           inkscape:connector-curvature="0"
           style="fill:#0d131a;stroke-linecap:round;stroke-linejoin:round" />
        <path
           d="m 164,56.3 c 0.93333,-0.866666 1.5,-1.083333 1.7,-0.65 0.2,0.4 -0.18334,0.966665 -1.15,1.7 -0.93333,0.7 -1.5,0.916666 -1.7,0.65 -0.19999,-0.266666 0.18334,-0.833332 1.15,-1.7 z"
           id="path9347"
           inkscape:connector-curvature="0"
           style="fill:#0d131a;stroke-linecap:round;stroke-linejoin:round" />
        <path
           d="m 169.35,27.55 c 0.76667,-1.633334 1.8,-2.733334 3.1,-3.3 l 1.15,-0.15 c 0.13334,0.2 -0.1,0.499998 -0.7,0.9 l -1.2,1.25 -1.2,1.9 c -0.3,0.633333 -0.63333,0.85 -1,0.65 -0.36667,-0.2 -0.41667,-0.616666 -0.15,-1.25 z"
           id="path9349"
           inkscape:connector-curvature="0"
           style="fill:#0d131a;stroke-linecap:round;stroke-linejoin:round" />
        <path
           d="m 140.75,18.5 c -0.46666,-2.333334 -1.65,-4.05 -3.55,-5.15 -0.63333,-0.333333 -0.9,-0.649999 -0.8,-0.95 0.13334,-0.266667 0.51667,-0.266667 1.15,0 1.2,0.533333 2.2,1.3 3,2.3 0.86667,1.1 1.36667,2.316666 1.5,3.65 0.0667,1.066668 -0.0833,1.616667 -0.45,1.65 -0.4,0 -0.68334,-0.5 -0.85,-1.5 z"
           id="path9351"
           inkscape:connector-curvature="0"
           style="fill:#0d131a;stroke-linecap:round;stroke-linejoin:round" />
        <path
           d="m 136.6,19.05 c -0.8,-1.166667 -1.9,-1.8 -3.3,-1.9 -1.93333,-0.133334 -3.7,0.766666 -5.3,2.7 -1.6,1.966666 -2.95,4.899998 -4.05,8.8 -0.56667,2 -1.01667,4.35 -1.35,7.05 -0.3,2.333333 -0.39999,3.75 -0.3,4.25 l 0.25,0.3 0.95,0.65 c 1.5,0.766668 3.73333,1.4 6.7,1.9 l 5.1,0.35 c 0.43334,-0.466666 0.95,-1.95 1.55,-4.45 0.7,-2.8 1.13334,-5.533332 1.3,-8.2 l 0.1,-3.05 c 0,-3.933334 -0.55,-6.733335 -1.65,-8.4 z M 140,29.9 c -0.2,3.4 -0.73334,6.666666 -1.6,9.8 -0.86666,3 -1.64998,4.650002 -2.35,4.95 -1.36667,0.6 -4.15,0.366666 -8.35,-0.7 -4.36666,-1.1 -6.71666,-2.300002 -7.05,-3.6 -0.3,-1.200002 -0.3,-3.133337 0,-5.8 0.3,-3 0.89999,-5.850001 1.8,-8.55 2.46666,-7.366667 6.11667,-10.883333 10.95,-10.55 4.96667,0.333333 7.16667,5.149998 6.6,14.45 z"
           id="path9353"
           inkscape:connector-curvature="0"
           style="fill:#0d131a;stroke-linecap:round;stroke-linejoin:round" />
        <path
           d="m 136.8,32.65 c 1.13333,-4 1.45,-7.533335 0.95,-10.6 -0.0333,-0.233332 0.2,-0.383332 0.7,-0.45 0.5,-0.06667 0.76666,0.01667 0.8,0.25 0.5,3.266667 0.16667,6.950001 -1,11.05 -1.33333,4.733335 -3.4,8.266668 -6.2,10.6 l -0.8,-0.1 c -0.40001,-0.133334 -0.51668,-0.26667 -0.35,-0.4 2.66667,-2.333332 4.63334,-5.783333 5.9,-10.35 z"
           id="path9355"
           inkscape:connector-curvature="0"
           style="fill:#0d131a;stroke-linecap:round;stroke-linejoin:round" />
        <path
           d="m 170,38.8 c 0.93333,-5.033334 2.46667,-8.8 4.6,-11.3 0.4,-0.433332 0.58333,-0.449999 0.55,-0.05 l -0.55,1.6 c 1.13334,0.866666 2.03333,2.416667 2.7,4.65 0.63333,2.1 0.88333,4.18333 0.75,6.25 -0.23333,4.1 -0.98333,7.166665 -2.25,9.2 -1.03334,1.633333 -2.23333,2.383333 -3.6,2.25 -0.86667,-0.06667 -1.55,-0.71667 -2.05,-1.95 -0.96667,-2.366664 -1.01667,-5.916663 -0.15,-10.65 z m 6.4,-0.2 c 0,-1.933332 -0.25,-3.716665 -0.75,-5.35 -0.43334,-1.433332 -0.96667,-2.483332 -1.6,-3.15 -0.93333,1.8 -1.68333,4.03333 -2.25,6.7 -0.5,2.5 -0.75,4.9 -0.75,7.2 0,2.033333 0.21666,3.649998 0.65,4.85 0.23333,0.566668 0.45001,0.85 0.65,0.85 0.43334,0.03333 0.85001,-0.116668 1.25,-0.45 0.73333,-0.600002 1.35,-1.733337 1.85,-3.4 0.46666,-1.66667 0.76666,-3.66667 0.9,-6 l 0.05,-1.25 z"
           id="path9357"
           inkscape:connector-curvature="0"
           style="fill:#0d131a;stroke-linecap:round;stroke-linejoin:round" />
        <path
           d="m 96,43.25 c -2.4,0.666668 -4.36667,1.850002 -5.9,3.55 l -1.2,-1.25 c 1.86666,-2.3 4.18333,-3.7 6.95,-4.2 0.333334,-0.06667 0.51667,0.216666 0.55,0.85 0.03333,0.633336 -0.1,0.983334 -0.4,1.05 z"
           id="path9359"
           inkscape:connector-curvature="0"
           style="fill:#0d131a;stroke-linecap:round;stroke-linejoin:round" />
        <path
           d="M 58.1,80.05 C 60.966667,74.01667 64.450005,68.46667 68.55,63.4 l 1.25,2.45 c -3.5,4.7 -6.53333,9.8 -9.1,15.3 -3.7,7.8 -5.916667,16.53333 -6.65,26.2 -0.833333,10.83333 0.800002,18.55 4.9,23.15 0.16667,0.16667 0.05,0.43333 -0.35,0.8 -0.4,0.36667 -0.683332,0.46668 -0.85,0.3 -4.366665,-4.86666 -6.316666,-12.95 -5.85,-24.25 0.4,-10.36666 2.466665,-19.46666 6.2,-27.3 z"
           id="path9361"
           inkscape:connector-curvature="0"
           style="fill:#0d131a;stroke-linecap:round;stroke-linejoin:round" />
        <path
           d="m 74.7,99.8 c 1.099995,-1.733334 1.949994,-4.51667 2.55,-8.35 0.6,-3.96667 0.65,-7.31667 0.15,-10.05 -0.06666,-0.2 0.25,-0.01667 0.95,0.55 0.66666,0.56667 1.01666,0.96667 1.05,1.2 0.56667,3.033334 0.516664,6.31667 -0.15,9.85 -0.63333,3.36667 -1.61666,6 -2.95,7.9 l -5.2,5.95 c -1.86666,1.93333 -3.06666,3.45 -3.6,4.55 -0.833336,1.8 -1.63334,3.98333 -2.4,6.55 -0.73333,2.56667 -1.183332,4.58334 -1.35,6.05 l -0.9,1.4 -0.85,0.75 c 0.266666,-2.23333 0.783333,-4.86666 1.55,-7.9 0.83333,-3.16666 1.66667,-5.66666 2.5,-7.5 0.6,-1.29999 1.95,-3.1 4.05,-5.4 l 4.6,-5.55 z"
           id="path9363"
           inkscape:connector-curvature="0"
           style="fill:#0d131a;stroke-linecap:round;stroke-linejoin:round" />
        <path
           d="m 58.25,97.05 c -1.033333,-4.93333 -1.1,-9.616666 -0.2,-14.05 0.03333,-0.23333 0.316665,-0.28333 0.85,-0.15 0.533334,0.1 0.783334,0.25 0.75,0.45 -0.733332,3.73333 -0.53333,8.31667 0.6,13.75 1.266666,5.90001 3.35,11.11667 6.25,15.65 0.13333,0.2 -0.03333,0.45 -0.5,0.75 l -0.85,0.1 c -3.466666,-5.36667 -5.766665,-10.86667 -6.9,-16.5 z"
           id="path9365"
           inkscape:connector-curvature="0"
           style="fill:#0d131a;stroke-linecap:round;stroke-linejoin:round" />
        <path
           d="m 80.85,107.3 c 3.066664,-5.46666 4.6,-10.55 4.6,-15.25 0,-0.2 0.31666,-0.150006 0.95,0.15 l 0.95,0.6 c -0.2,9.63333 -4.58333,18.18333 -13.15,25.65 -0.16667,0.13334 -0.6,0.13334 -1.3,0 -0.66666,-0.13333 -0.91666,-0.26667 -0.75,-0.4 3.1,-2.36667 6,-5.95 8.7,-10.75 z"
           id="path9367"
           inkscape:connector-curvature="0"
           style="fill:#0d131a;stroke-linecap:round;stroke-linejoin:round" />
        <path
           d="m 152.1,95.35 c 0,-5.2 -0.98333,-10.1 -2.95,-14.7 -0.1,-0.23333 0.1,-0.449995 0.6,-0.65 0.5,-0.23333 0.78334,-0.23333 0.85,0 2.36666,5.36667 3.55,10.48334 3.55,15.35 0,23.13334 -8.98334,39.86667 -26.95,50.2 -6.7,3.86667 -13.78334,6.28334 -21.25,7.25 -6.66667,0.83333 -11.75,0.38333 -15.25,-1.35 -0.2,-0.1 -0.18333,-0.38332 0.05,-0.85 0.23333,-0.5 0.45,-0.69999 0.65,-0.6 3.46667,1.73334 8.433336,2.1 14.9,1.1 7.1,-1.06666 13.85,-3.55 20.25,-7.45 7.56667,-4.6 13.51667,-10.6 17.85,-18 5.13334,-8.66666 7.7,-18.76666 7.7,-30.3 z"
           id="path9369"
           inkscape:connector-curvature="0"
           style="fill:#0d131a;stroke-linecap:round;stroke-linejoin:round" />
        <path
           d="m 116.65,92.95 c -3.6,-2.633334 -6.21667,-5.65 -7.85,-9.05 -0.0667,-0.16666 0.0667,-0.51666 0.4,-1.05 0.36667,-0.5 0.58333,-0.65 0.65,-0.45 1.36667,3.26667 3.83333,6.200006 7.4,8.8 3.6,2.56667 7.88333,4.483334 12.85,5.75 4.5,1.16666 8.78333,1.599995 12.85,1.3 4.06666,-0.333336 7.16667,-1.350006 9.3,-3.05 0.16667,-0.133334 0.41667,0.01667 0.75,0.45 0.33333,0.433336 0.41666,0.71667 0.25,0.85 -2.40001,1.9 -5.73334,3.083336 -10,3.55 -4.40001,0.5 -8.95001,0.15001 -13.65,-1.05 -4.89999,-1.26667 -9.21666,-3.28334 -12.95,-6.05 z"
           id="path9371"
           inkscape:connector-curvature="0"
           style="fill:#0d131a;stroke-linecap:round;stroke-linejoin:round" />
        <path
           d="m 138.95,98.85 c 0.56666,0.03333 0.83333,0.16666 0.8,0.4 -0.56667,6.53333 -3.33333,15.36667 -8.3,26.5 -5.1,11.43333 -9.63333,18.55 -13.6,21.35 l -0.75,-0.45 c -0.3,-0.43334 -0.36666,-0.71667 -0.2,-0.85 3.23333,-2.3 7.49999,-9.38333 12.8,-21.25 5.16667,-11.59999 7.98333,-20.08333 8.45,-25.45 0,-0.23333 0.26666,-0.31667 0.8,-0.25 z"
           id="path9373"
           inkscape:connector-curvature="0"
           style="fill:#0d131a;stroke-linecap:round;stroke-linejoin:round" />
        <path
           d="m 101.8,90.2 0,-0.05 c 0,-0.53333 0.25,-0.8 0.75,-0.8 l 0.6,0.2 0.25,0.55 0.85,13.1 0.6,11.85 -0.2,0.55 -5.65,5.5 c -4.299995,3.86667 -8.316666,6.73334 -12.05,8.6 l -0.6,0.05 -0.5,-0.4 L 85.8,129 c 0,-0.33333 0.150005,-0.58333 0.45,-0.75 5.13333,-2.56667 10.799995,-7.06667 17,-13.5 L 102.6,103 101.8,90.2 z"
           id="path9375"
           inkscape:connector-curvature="0"
           style="fill:#0d131a;stroke-linecap:round;stroke-linejoin:round" />
        <path
           d="m 114.75,122.95 c 4.29999,2.23333 8.95,3.81667 13.95,4.75 l 7.85,0.35 c 3.2,-0.1 5.75,-0.4 7.65,-0.9 0.23333,-0.0333 0.26667,0.2 0.1,0.7 l -0.55,0.8 c -1.86667,0.63334 -4.3,1.06667 -7.3,1.3 -3.1,0.26667 -5.9,0.23335 -8.4,-0.1 -4.96666,-0.63334 -9.61667,-2.18334 -13.95,-4.65 -4.23333,-2.43333 -7.55,-5.4 -9.95,-8.9 -0.13334,-0.2 -0.11667,-0.58333 0.05,-1.15 0.13334,-0.56666 0.26667,-0.76666 0.4,-0.6 2.13334,3.16667 5.51667,5.96666 10.15,8.4 z"
           id="path9377"
           inkscape:connector-curvature="0"
           style="fill:#0d131a;stroke-linecap:round;stroke-linejoin:round" />
        <path
           d="m 103.5,146.9 -12.1,-1.4 c -0.23333,-0.0333 -0.299994,-0.26668 -0.2,-0.7 0.06667,-0.43333 0.21667,-0.63333 0.45,-0.6 l 12.7,1.2 c 6.06666,0.36666 10.38333,0.44999 12.95,0.25 l 0.55,0.15 0.3,0.5 0.25,2.5 c 0.0667,0.23333 -0.13333,0.4 -0.6,0.5 l -0.75,-0.15 -0.35,-1.85 -13.2,-0.4 z"
           id="path9379"
           inkscape:connector-curvature="0"
           style="fill:#0d131a;stroke-linecap:round;stroke-linejoin:round" />
        <path
           d="m 50,156 1.65,-10.25 c 1.3,-6.33333 2.95,-11.18333 4.95,-14.55 3.666666,-6.16667 7.733336,-10.3 12.2,-12.4 3.93333,-1.9 7.266666,-1.9 10,0 5.533336,3.86666 9.56667,9.81667 12.1,17.85 2.4,7.66667 2.33334,13.11666 -0.2,16.35 -4.133334,5.16667 -7.16667,9.15001 -9.1,11.95 l -5.4,8.6 c -2.56667,4.06667 -4.283336,6.18334 -5.15,6.35 -1.3,0.3 -3.75,-1.91666 -7.35,-6.65 -2.3,1.46666 -4.599998,2.66666 -6.9,3.6 -2.233334,0.9 -3.66667,1.23333 -4.3,1 -0.533333,-0.19999 -0.88333,-0.88333 -1.05,-2.05 -0.1,-0.9 -0.166667,-2.95001 -0.2,-6.15 l -5.65,-2.4 c -2.4,-1.16667 -3.65,-2.18333 -3.75,-3.05 -0.06667,-0.73333 0.55,-1.79999 1.85,-3.2 1.466668,-1.59999 3.566666,-3.26666 6.3,-5 z m 35.75,-26.25 c -2.46667,-4.46667 -5.083336,-7.66666 -7.85,-9.6 -1.4,-0.96667 -3.066664,-1.23334 -5,-0.8 -1.86667,0.36667 -3.816664,1.38334 -5.85,3.05 -2.9,2.36666 -5.716668,5.86666 -8.45,10.5 -2.066667,3.46667 -3.866666,8.43334 -5.4,14.9 -0.733333,3.23333 -1.283332,6.15 -1.65,8.75 l -0.3,0.5 -4.55,4 c -1.3,1.33333 -1.95,2.2 -1.95,2.6 0.06667,0.4 0.866665,1.06667 2.4,2 1.5,0.96667 3.233335,1.88334 5.2,2.75 0.33333,0.1 0.5,0.33334 0.5,0.7 0,3.30001 0.216666,5.35001 0.65,6.15 1.333332,-0.26666 4.699997,-1.5 10.1,-3.7 l 0.95,0.2 3.4,3.7 c 1.233334,1.16667 2.05,1.8 2.45,1.9 0.63333,-0.33332 2.166666,-2.18333 4.6,-5.55 l 5.2,-7.7 c 1.133336,-1.83332 3.56667,-5.18333 7.3,-10.05 l 1.95,-2.55 c 0.83333,-1.06667 1.25,-2.75 1.25,-5.05 l -0.25,-3.35 c -0.7,-4.4 -2.266666,-8.85 -4.7,-13.35 z"
           id="path9381"
           inkscape:connector-curvature="0"
           style="fill:#0d131a;stroke-linecap:round;stroke-linejoin:round" />
        <path
           d="m 152.7,153.4 c 1.7,-3.96667 1.7,-8.38334 0,-13.25 -1.73333,-5 -4.78333,-9.01667 -9.15,-12.05 -0.13333,-0.1 0.0833,-0.45 0.65,-1.05 0.53334,-0.63334 0.9,-0.88334 1.1,-0.75 4.86667,3.4 8.10001,8.03333 9.7,13.9 1.43333,5.23333 1.26666,9.66667 -0.5,13.3 5.36667,2.3 8.05,4.1 8.05,5.4 0,0.8 -1.58333,2.25 -4.75,4.35 l -1.55,-1.3 c 2.7,-1.63333 4.05,-2.68334 4.05,-3.15 0,-0.36667 -0.76666,-0.96667 -2.3,-1.8 -1.40001,-0.8 -3.05,-1.58334 -4.95,-2.35 l -0.55,-0.5 0.2,-0.75 z"
           id="path9383"
           inkscape:connector-curvature="0"
           style="fill:#0d131a;stroke-linecap:round;stroke-linejoin:round" />
        <path
           d="m 161.55,76.35 c -0.2,-0.06667 -0.0333,-0.35 0.5,-0.85 0.5,-0.5 0.81667,-0.71667 0.95,-0.65 2.3,0.833334 5.43333,2.53333 9.4,5.1 4.3,2.733334 7.23333,5.06667 8.8,7 0.36667,0.466664 0.41667,0.849995 0.15,1.15 -0.3,0.26667 -0.63333,0.16667 -1,-0.3 -1.5,-1.866666 -4.63333,-4.18333 -9.4,-6.95 -4.33333,-2.5 -7.46666,-4 -9.4,-4.5 z"
           id="path9385"
           inkscape:connector-curvature="0"
           style="fill:#0d131a;stroke-linecap:round;stroke-linejoin:round" />
        <path
           d="m 179.55,85.8 -0.8,-0.6 c -0.40001,-0.366664 -0.50002,-0.56666 -0.3,-0.6 l 4.5,-0.2 c 1.8,0.13333 2.9,0.46667 3.3,1 0.23334,0.33334 0.25,1.06667 0.05,2.2 l -0.9,3.15 c 2.63334,0.799995 4.03335,1.73333 4.2,2.8 0.0333,0.366664 -0.28333,1.016666 -0.95,1.95 -0.80001,1.13333 -1.91668,2.299995 -3.35,3.5 0.66667,0.833336 1,1.73334 1,2.7 0,0.96666 -1.01666,2.05 -3.05,3.25 -2.13333,1.23333 -4.76666,2.2 -7.9,2.9 -8.16667,1.83333 -15.88334,1.10001 -23.15,-2.2 -0.23333,-0.1 -0.26665,-0.46667 -0.1,-1.1 0.13334,-0.66666 0.30001,-0.94999 0.5,-0.85 1.86666,0.83333 4.16666,1.53334 6.9,2.1 l 10.35,1 c 3.4,0 6.78333,-0.73333 10.15,-2.2 2.93333,-1.3 4.4,-2.3 4.4,-3 0,-0.56667 -0.26667,-1.35 -0.8,-2.35 -0.19999,-0.333336 -0.16667,-0.65 0.1,-0.95 2.3,-2.3 3.53334,-3.81667 3.7,-4.55 -0.30001,-0.5 -1.36667,-1.083336 -3.2,-1.75 l -0.55,-0.35 0,-0.6 c 0.6,-2.099995 0.9,-3.63333 0.9,-4.6 l 0,-0.1 -2,-0.4 -3,-0.15 z"
           id="path9387"
           inkscape:connector-curvature="0"
           style="fill:#0d131a;stroke-linecap:round;stroke-linejoin:round" />
        <path
           d="m 31.05,87.35 c -1.2,-1.7 -2.666667,-2.8 -4.4,-3.3 -1.066668,-0.3 -2.066668,-0.3 -3,0 -0.933333,0.33334 -1.666666,0.916675 -2.2,1.75 -0.399999,0.66667 -0.75,0.91667 -1.05,0.75 -0.3,-0.16666 -0.283333,-0.583325 0.05,-1.25 0.7,-1.4 1.633332,-2.31666 2.8,-2.75 1.033333,-0.366666 2.316666,-0.383336 3.85,-0.05 2.6,0.566666 4.733334,2.083336 6.4,4.55 1.666668,2.400005 2.5,5.11667 2.5,8.15 0,4.66666 -1.816666,8.78333 -5.45,12.35 -3.600001,3.5 -7.700002,5.25 -12.3,5.25 -4.8,0 -9.016666,-2.11667 -12.65,-6.35 C 1.8666666,102.15 -1.1920929e-7,97.083336 0,91.25 0,82.083336 3.3,74.46667 9.9,68.4 16,62.8 23.016666,60 30.95,60 c 8.133336,0 14.300004,2.866665 18.5,8.6 4.233334,5.73333 6.233334,14 6,24.8 -0.03333,0.933336 -0.33333,1.73334 -0.9,2.4 -0.566666,0.633334 -0.833333,0.616664 -0.8,-0.05 0.633335,-10.96667 -1.266666,-19.433334 -5.7,-25.4 -4.1,-5.5 -9.8,-8.25 -17.1,-8.25 -6.666667,0 -12.783334,2.483336 -18.35,7.45 -6.3666664,5.66667 -9.5499998,12.9 -9.55,21.7 0,5.46667 1.4666664,10.08334 4.4,13.85 2.933333,3.76667 6.533334,5.65 10.8,5.65 4.1,0 7.616667,-1.51667 10.55,-4.55 2.9,-3.03334 4.35,-6.7 4.35,-11 0,-3.16667 -0.7,-5.783336 -2.1,-7.85 z"
           id="path9389"
           inkscape:connector-curvature="0"
           style="fill:#0d131a;stroke-linecap:round;stroke-linejoin:round" />
        <path
           d="M 22.95,129.7 C 12.383333,120.79999 5.116666,110.21666 1.15,97.95 c -0.066667,-0.2 0.1999999,-0.249995 0.8,-0.15 0.6,0.1 0.9166666,0.21667 0.95,0.35 3.9333335,11.5 10.95,21.45 21.05,29.85 10.133336,8.46666 20.183335,12.7 30.15,12.7 0.233332,0 0.266665,0.35 0.1,1.05 -0.166667,0.7 -0.366668,1.05 -0.6,1.05 -10.066667,0 -20.283334,-4.36667 -30.65,-13.1 z"
           id="path9391"
           inkscape:connector-curvature="0"
           style="fill:#0d131a;stroke-linecap:round;stroke-linejoin:round" />
        <path
           d="m 125.6,165.25 c -5.46667,-6.43333 -10.51667,-10.95 -15.15,-13.55 -0.16667,-0.1 0.13334,-0.33333 0.9,-0.7 0.73333,-0.36667 1.16666,-0.51666 1.3,-0.45 4.83334,2.46666 9.78333,6.88333 14.85,13.25 l 4.55,6 c 1.3,1.66667 2.18334,2.48334 2.65,2.45 3.2,-0.2 7.81666,-1.53333 13.85,-4 5.76667,-2.36667 8.66666,-3.95 8.7,-4.75 0.0333,-0.33333 -0.43332,-0.76666 -1.4,-1.3 -0.96667,-0.53334 -2.11668,-0.98334 -3.45,-1.35 -1.30001,-0.4 -1.88334,-0.76667 -1.75,-1.1 l 2.15,-0.15 c 1.9,0.36666 3.53333,0.99999 4.9,1.9 1.26667,0.86667 1.80002,1.58333 1.6,2.15 -0.7,2.1 -4.36667,4.45 -11,7.05 -6.53334,2.53334 -11.3,3.6 -14.3,3.2 -0.73334,-0.1 -3.53334,-2.98333 -8.4,-8.65 z"
           id="path9393"
           inkscape:connector-curvature="0"
           style="fill:#0d131a;stroke-linecap:round;stroke-linejoin:round" />
        <path
           d="m 86.7,41.85 c 7.66666,6.4 12,9.916666 13,10.55 0.233334,0.133333 0.43334,0.666666 0.6,1.6 0.2,0.899998 0.2,1.283333 0,1.15 -1.93333,-1.2 -6.51667,-4.766665 -13.75,-10.7 -6.466664,-5.3 -9.88333,-7.916667 -10.25,-7.85 -0.466664,0.06667 -1.13333,1.366667 -2,3.9 -0.8,2.433334 -1.3,4.516666 -1.5,6.25 -0.133336,1.333332 -0.400006,1.983334 -0.8,1.95 -0.4,0 -0.6,-0.666667 -0.6,-2 0.03333,-2.6 0.48333,-5.233337 1.35,-7.9 0.933334,-2.766667 1.933334,-4.266667 3,-4.5 1,-0.2 4.65,2.316665 10.95,7.55 z"
           id="path9395"
           inkscape:connector-curvature="0"
           style="fill:#0d131a;stroke-linecap:round;stroke-linejoin:round" />
        <path
           d="m 111.2,70 0.8,-0.05 0.85,0.5 c 0.2,2.133336 -0.0667,4.71667 -0.8,7.75 -0.76667,3.2 -1.78334,5.68334 -3.05,7.45 -3.03333,4.2 -6.8,6.98333 -11.3,8.35 -4.43333,1.36667 -8.266666,1 -11.5,-1.1 C 82.03333,90.2 76.76667,82.399994 70.4,69.5 64.1,56.8 61.466663,49.016666 62.5,46.15 c 0.333332,-0.933333 1.7,-1.466666 4.1,-1.6 l 5.45,0.35 c 0.2,0.03333 0.283336,0.316667 0.25,0.85 0,0.533333 -0.116666,0.783333 -0.35,0.75 -1.400005,-0.100002 -2.86667,-0.100002 -4.4,0 -1.599995,0.133335 -2.51666,0.31667 -2.75,0.55 -0.866666,2.466666 1.56667,9.733333 7.3,21.8 5.93333,12.466666 10.93333,20.01667 15,22.65 2.833334,1.86667 6.2,2.1 10.1,0.7 3.9,-1.400005 7.25,-4.050006 10.05,-7.95 1.29999,-1.799995 2.36666,-4.18333 3.2,-7.15 0.8,-2.96667 1.05,-5.33334 0.75,-7.1 z"
           id="path9397"
           inkscape:connector-curvature="0"
           style="fill:#0d131a;stroke-linecap:round;stroke-linejoin:round" />
        <path
           d="m 80,44.25 c 0.86667,-0.399998 2.23334,0.01667 4.1,1.25 1.63334,1.066666 2.750006,2.05 3.35,2.95 0.633336,1 0.71667,1.650002 0.25,1.95 -0.46667,0.266668 -1.016666,-0.08333 -1.65,-1.05 -0.4,-0.633333 -1.26667,-1.316667 -2.6,-2.05 -1.266666,-0.7 -2.1,-1 -2.5,-0.9 -0.33334,0.333334 -0.58334,1.366666 -0.75,3.1 -0.16667,1.966667 -0.133334,4.25 0.1,6.85 0.133334,1.299998 -0.08333,1.966666 -0.65,2 -0.53333,0.03334 -0.85,-0.599996 -0.95,-1.9 -0.633334,-7.433334 -0.2,-11.5 1.3,-12.2 z"
           id="path9399"
           inkscape:connector-curvature="0"
           style="fill:#0d131a;stroke-linecap:round;stroke-linejoin:round" />
      </g>
    </g>
  </g>
</svg>
